<svg id="Layer_1" data-name="Layer 1" xmlns="http://www.w3.org/2000/svg" xmlns:xlink="http://www.w3.org/1999/xlink" viewBox="0 0 538.75 541.53"><defs><style>.cls-1{fill:url(#radial-gradient);}</style><radialGradient id="radial-gradient" cx="750" cy="750" r="293.22" gradientUnits="userSpaceOnUse"><stop offset="0.57" stop-color="#f0f0f0"/><stop offset="1" stop-color="#8a8a8a"/></radialGradient></defs><path class="cls-1" d="M621.43,508.28l56.09,72.93-16.25,12.5L628.65,551.3l20.92,51.4-15.85,12.19-45.09-34.23,33.3,43.3-16.25,12.5-56.09-72.93,24.95-19,42.19,31.9-19.9-49Z" transform="translate(-480.68 -480.56)"/><path class="cls-1" d="M683.3,584.62l-29.43-87.16,19.42-6.56,29.44,87.16Z" transform="translate(-480.68 -480.56)"/><path class="cls-1" d="M746.9,572.17a34.3,34.3,0,0,1-4.19-.16c-1.38-.14-2.74-.32-4.07-.55a31.58,31.58,0,0,1-4-.92c-1.3-.39-2.58-.82-3.84-1.3s-2.36-1.14-3.54-1.74-2.36-1.27-3.55-2a24.28,24.28,0,0,1-3.19-2.25c-1-.86-2-1.73-2.94-2.63a28.84,28.84,0,0,1-5.15-5.9,47.28,47.28,0,0,1-4-6.92,55.17,55.17,0,0,1-2.54-7.7,42.83,42.83,0,0,1-.92-8.23l-.19-9.5a45.2,45.2,0,0,1,.59-8.27c.31-1.34.64-2.65,1-3.95a40,40,0,0,1,1.25-3.84c.56-1.18,1.14-2.36,1.75-3.54a32.42,32.42,0,0,1,2-3.41,19.66,19.66,0,0,1,2.26-3.3c.86-1,1.74-2,2.64-2.93a46.63,46.63,0,0,1,5.94-5.12,48,48,0,0,1,6.94-3.89c1.24-.52,2.5-1,3.78-1.45a31.57,31.57,0,0,1,3.92-1.07,39.23,39.23,0,0,1,16.5-.33,31.84,31.84,0,0,1,3.95.92c1.3.39,2.58.82,3.84,1.3a35.44,35.44,0,0,1,7,3.61A39.65,39.65,0,0,1,779.44,498a35.89,35.89,0,0,1,3.88,6.8,40.2,40.2,0,0,1,2.53,7.7L765.94,517a20.73,20.73,0,0,0-1.21-3.85,31.93,31.93,0,0,0-2.07-3.46,10.43,10.43,0,0,0-2.55-3,8.4,8.4,0,0,0-1.4-1.28c-.51-.37-1.06-.75-1.65-1.16a35.31,35.31,0,0,0-3.54-1.93,20.76,20.76,0,0,0-3.9-1,17.26,17.26,0,0,0-8.25.16,21.23,21.23,0,0,0-3.85,1.2,35.51,35.51,0,0,0-3.46,2.07c-.58.43-1.11.84-1.6,1.22a14.87,14.87,0,0,0-1.47,1.34,19.63,19.63,0,0,0-2.44,3,14.31,14.31,0,0,0-1.81,3.54c-.24.67-.45,1.32-.65,1.95s-.37,1.28-.52,2a23.54,23.54,0,0,0-.29,4.13l.18,9.5a23.63,23.63,0,0,0,.46,4.24q.27,1,.6,1.92c.22.63.47,1.23.73,1.8a17.23,17.23,0,0,0,1.94,3.47c.43.57.86,1.1,1.28,1.6l1.28,1.47,1.53,1.22c.51.41,1.06.81,1.65,1.22a14.21,14.21,0,0,0,3.53,1.8c.68.24,1.33.46,2,.65s1.27.37,1.94.53a23,23,0,0,0,8.25-.17c.67-.18,1.31-.38,1.93-.6s1.26-.46,1.92-.73a13.86,13.86,0,0,0,3.46-1.94,19.9,19.9,0,0,0,3-2.56q.74-.76,1.35-1.53a10.38,10.38,0,0,0,1.09-1.64,8.29,8.29,0,0,0,1-1.65l.9-1.89a14,14,0,0,0,.59-1.83c.15-.62.31-1.27.46-1.94l20.08,3.6a33.85,33.85,0,0,1-2.22,7.79,36.16,36.16,0,0,1-3.61,7.08c-.73,1.1-1.5,2.15-2.32,3.17s-1.67,2-2.56,2.92-1.84,1.85-2.82,2.75a20.37,20.37,0,0,1-3.21,2.38,34.06,34.06,0,0,1-3.33,2.12c-1.16.65-2.31,1.28-3.46,1.89s-2.51,1-3.79,1.45a32.93,32.93,0,0,1-3.92,1.08c-1.41.27-2.78.51-4.11.7A32.26,32.26,0,0,1,746.9,572.17Z" transform="translate(-480.68 -480.56)"/><path class="cls-1" d="M889.36,516.1l-36.57,84.42L834,592.37l14.21-32.8L821.7,548.09,807.49,580.9l-18.81-8.15,36.56-84.42,18.81,8.15-14.21,32.8,26.5,11.48L870.55,508Z" transform="translate(-480.68 -480.56)"/><path class="cls-1" d="M957.58,576.71l-52.34,78.72L890.9,640.1l5.78-8.83-18.45-19.72-9.1,5.27-14.35-15.34,82-47.05Zm-61,24.4,11.87,12.69,21-31.58Z" transform="translate(-480.68 -480.56)"/><path class="cls-1" d="M979.49,651.92l-14.12,5.43,14,36.4-19.13,7.36-14-36.41L932,670.18l14,36.4-19.13,7.35L910.09,670.3l-4.58-11.9,85.88-33,7.35,19.13-.11.05,14,36.4-19.14,7.36Z" transform="translate(-480.68 -480.56)"/><path class="cls-1" d="M949.71,768l-20.47,1.1-2.78-51.68,91.87-4.94,1.1,20.47L948,736.76Z" transform="translate(-480.68 -480.56)"/><path class="cls-1" d="M912.27,823.21a32.7,32.7,0,0,1,18.56-17.4,32.7,32.7,0,0,1,25.43.79l11,5-8.44,18.69-11-5a13.26,13.26,0,0,0-4.83-1.15,11.24,11.24,0,0,0-4.92.87,11,11,0,0,0-4.26,2.6,13.14,13.14,0,0,0-2.86,4,12.2,12.2,0,0,0-1.12,4.91,13.56,13.56,0,0,0,.77,4.81,12.26,12.26,0,0,0,2.57,4.18,12.72,12.72,0,0,0,4.15,3l53.31,24.09-8.44,18.68L928.88,867.2a32,32,0,0,1-10.71-7.72,33.43,33.43,0,0,1-8.84-23.4A32.2,32.2,0,0,1,912.27,823.21Z" transform="translate(-480.68 -480.56)"/><path class="cls-1" d="M923.63,956.58a44.78,44.78,0,0,1-16,8.73,47.24,47.24,0,0,1-17.51,1.9,45.92,45.92,0,0,1-16.93-4.78,44.38,44.38,0,0,1-14.28-11.35A44.92,44.92,0,0,1,850.08,935a46.09,46.09,0,0,1-1.81-17.5,47.26,47.26,0,0,1,4.87-16.92,45.9,45.9,0,0,1,27.36-23A47.25,47.25,0,0,1,898,875.63a45.94,45.94,0,0,1,16.93,4.79A46.22,46.22,0,0,1,938,907.88a45.87,45.87,0,0,1,1.81,17.5A47.38,47.38,0,0,1,935,942.3,44.59,44.59,0,0,1,923.63,956.58ZM877.69,902a25.33,25.33,0,0,0-9,17.33,26.18,26.18,0,0,0,1.08,9.74,24.83,24.83,0,0,0,4.83,8.85,24.51,24.51,0,0,0,7.86,6.24,26.33,26.33,0,0,0,9.37,2.68,25.51,25.51,0,0,0,27.64-23.25,26.23,26.23,0,0,0-1-9.69,24.31,24.31,0,0,0-4.79-8.8,24.87,24.87,0,0,0-7.9-6.28,25.94,25.94,0,0,0-9.41-2.74A25.32,25.32,0,0,0,877.69,902Z" transform="translate(-480.68 -480.56)"/><path class="cls-1" d="M780.88,1020.5l-22-89.31,19.9-4.92L787.3,961l28-6.92-8.57-34.71,19.91-4.92,22.05,89.32-19.9,4.92L820.25,974l-28,6.92,8.57,34.71Z" transform="translate(-480.68 -480.56)"/><path class="cls-1" d="M707.51,923.43l20.4,56.51,8.42-51.82,20.23,3.28-14.73,90.69-21.59-3.51-20.46-56.51-8.42,51.82-20.23-3.29,14.73-90.68Z" transform="translate(-480.68 -480.56)"/><path class="cls-1" d="M654.87,900.45a33.17,33.17,0,0,1,9.66,9.21A37,37,0,0,1,670,921.4a33.79,33.79,0,0,1,.87,12.68,27.78,27.78,0,0,1-4.17,11.86l-17.32-11a8.47,8.47,0,0,0,1.3-4.28,14.37,14.37,0,0,0-.61-4.75,15.3,15.3,0,0,0-2.3-4.56,13.62,13.62,0,0,0-3.8-3.58,12.92,12.92,0,0,0-4.7-1.8,17.7,17.7,0,0,0-5.07-.17,12.92,12.92,0,0,0-4.58,1.39,9.65,9.65,0,0,0-3.41,2.94,8.21,8.21,0,0,0,1.59,2.64q1.25,1.53,2.85,3.2c1.06,1.12,2.19,2.23,3.37,3.32s2.2,2.06,3,2.89q3.66,3.35,7.64,7.57a46,46,0,0,1,6.7,9.05,24.63,24.63,0,0,1,3.16,10.2q.44,5.38-3.24,11.2a27.83,27.83,0,0,1-8.93,8.84,34.46,34.46,0,0,1-11.86,4.7,36,36,0,0,1-13,.14,33.25,33.25,0,0,1-12.46-4.77,32.8,32.8,0,0,1-9.55-9.15,36.45,36.45,0,0,1-5.44-11.79,34.77,34.77,0,0,1-.83-12.74,27.78,27.78,0,0,1,4.17-11.85l17.32,11a8.87,8.87,0,0,0-1.34,4.33,13.66,13.66,0,0,0,.64,4.84,16.63,16.63,0,0,0,2.29,4.55,13.25,13.25,0,0,0,3.75,3.56,13.39,13.39,0,0,0,4.81,1.86,16.83,16.83,0,0,0,5.1.12,13.82,13.82,0,0,0,4.61-1.45,8.46,8.46,0,0,0,3.31-3,6.8,6.8,0,0,0-1.49-2.57q-1.25-1.53-2.88-3.3c-1.08-1.18-2.21-2.31-3.4-3.41s-2.24-2.08-3.17-3q-3.48-3.39-7.55-7.52a41.3,41.3,0,0,1-6.74-8.92,25,25,0,0,1-3.12-10.18q-.45-5.38,3.23-11.2a28,28,0,0,1,8.93-8.85,34,34,0,0,1,11.83-4.64,37,37,0,0,1,12.95-.09A32.92,32.92,0,0,1,654.87,900.45Z" transform="translate(-480.68 -480.56)"/><path class="cls-1" d="M528.7,869.9l12.8,17.73,58.08-41.91,12,16.63L553.5,904.26,566.3,922l-16.63,12-37.59-52.1Z" transform="translate(-480.68 -480.56)"/><path class="cls-1" d="M484.56,798.79a44.57,44.57,0,0,1,.35-18.24,47.19,47.19,0,0,1,7-16.15,46.19,46.19,0,0,1,12.54-12.34,46.25,46.25,0,0,1,35.29-6.46,46,46,0,0,1,16.11,7.09,47.32,47.32,0,0,1,12.28,12.62,45.83,45.83,0,0,1,6.44,35.16,47.15,47.15,0,0,1-7,16.16A45.88,45.88,0,0,1,555,829a46.24,46.24,0,0,1-35.29,6.47,45.93,45.93,0,0,1-16.1-7.1,47.16,47.16,0,0,1-12.29-12.61A44.57,44.57,0,0,1,484.56,798.79Zm70.21-12.86a25.2,25.2,0,0,0-3.75-9.42,24.94,24.94,0,0,0-6.84-7,26.12,26.12,0,0,0-9-3.88,24.82,24.82,0,0,0-10.09-.19,24.51,24.51,0,0,0-9.31,3.74,26.24,26.24,0,0,0-7,6.8,25.56,25.56,0,0,0,6.5,35.54,26.53,26.53,0,0,0,8.94,3.89,24.46,24.46,0,0,0,10,.2,24.9,24.9,0,0,0,9.37-3.75,26,26,0,0,0,7-6.82,24.8,24.8,0,0,0,3.92-9A25.07,25.07,0,0,0,554.77,785.93Z" transform="translate(-480.68 -480.56)"/><path class="cls-1" d="M582.67,687.63l-58.5,13.67,50.49,14.41L569,735.42,480.68,710.2l6-21,58.51-13.72L494.72,661l5.62-19.71,88.35,25.22Z" transform="translate(-480.68 -480.56)"/></svg>