<svg id="Layer_1" data-name="Layer 1" xmlns="http://www.w3.org/2000/svg" xmlns:xlink="http://www.w3.org/1999/xlink" viewBox="0 0 1007.68 1016.63"><defs><style>.cls-1{fill:url(#radial-gradient);}</style><radialGradient id="radial-gradient" cx="750" cy="750" r="534.17" gradientUnits="userSpaceOnUse"><stop offset="0.67" stop-color="#f7f7f7"/><stop offset="0.97" stop-color="#a6a6a6"/><stop offset="1" stop-color="#d6d6d6"/></radialGradient></defs><g id="WITH_A_PASSION_FOR_UI_UX" data-name="WITH A PASSION FOR UI/UX"><path class="cls-1" d="M707.29,239.31l5.79,143.35-44.66,12.43L633.2,330.94,636,404.11l-44.66,12.44L522.24,290.83,553,282.27l50.77,92.37-4.13-104.76-.33-.5,31.11-8.67,0,.6,50.44,91.87-4.28-105.31Z" transform="translate(-246.24 -239.31)"/><path class="cls-1" d="M752,386,758.6,246.3l31.13,1.48L783.1,387.46Z" transform="translate(-246.24 -239.31)"/><path class="cls-1" d="M913.89,304l-32.23-8.18L854.87,401.31l-30.2-7.67,26.79-105.52-32.23-8.19,7.67-30.2,94.65,24Z" transform="translate(-246.24 -239.31)"/><path class="cls-1" d="M1056.55,347,984,466.52l-26.63-16.17,28.2-46.45L948,381.12l-28.21,46.45L893.19,411.4l72.58-119.53L992.41,308,964.2,354.49l37.52,22.78,28.2-46.45Z" transform="translate(-246.24 -239.31)"/><path class="cls-1" d="M1172,474.22l-94,108.66L1059.26,557l10.41-12.21-24-33.27-14.74,6.19-18.68-25.88,132.62-55.2Zm-96.72,25.07,15.46,21.41,37.66-43.59Z" transform="translate(-246.24 -239.31)"/><path class="cls-1" d="M1239.27,631.42a50.34,50.34,0,0,1,.72,20.37,51.69,51.69,0,0,1-20.3,33,51.35,51.35,0,0,1-38.64,9.15,51.74,51.74,0,0,1-33-20.39,50.51,50.51,0,0,1-8.5-18.55l-3.55-15-36.24,8.58-7.18-30.32L1228.51,586Zm-69.36,16.34a19.82,19.82,0,0,0,3.38,7.31,21,21,0,0,0,5.7,5.28,20.41,20.41,0,0,0,7.23,2.78,19.21,19.21,0,0,0,8-.23,18.4,18.4,0,0,0,7.13-3.35,20.68,20.68,0,0,0,7.85-13,19.51,19.51,0,0,0-.26-8l-3.54-15-39,9.25Z" transform="translate(-246.24 -239.31)"/><path class="cls-1" d="M1250.71,808.33l-141.8,23.28,2.21-31.84,15.81-2.71,2.85-40.94-15.3-4.69,2.22-31.84,137.22,42.49Zm-90.36-42.66L1158.51,792l56.84-9.38Z" transform="translate(-246.24 -239.31)"/><path class="cls-1" d="M1087.53,885.69a50.61,50.61,0,0,1,11.12-17,56.08,56.08,0,0,1,16-11.4,51.61,51.61,0,0,1,18.71-4.79,42.57,42.57,0,0,1,18.88,3l-11.62,28.91a12.92,12.92,0,0,0-6.75-.77,21.75,21.75,0,0,0-6.94,2.23,23,23,0,0,0-6.18,4.69,20.64,20.64,0,0,0-4.32,6.66,19.69,19.69,0,0,0-1.39,7.53,26.5,26.5,0,0,0,1.14,7.62,19.65,19.65,0,0,0,3.34,6.46,14.6,14.6,0,0,0,5.34,4.3,12.68,12.68,0,0,0,3.5-3.1c1.29-1.53,2.63-3.24,4-5.15s2.72-3.89,4-6,2.47-3.86,3.49-5.36q4-6.37,9.21-13.5a70.06,70.06,0,0,1,11.68-12.51,37.41,37.41,0,0,1,14.39-7.52q7.92-2.14,17.62,1.75a42.49,42.49,0,0,1,15.68,10.92,52.61,52.61,0,0,1,10.29,16.44,55.27,55.27,0,0,1,3.78,19.37,51.05,51.05,0,0,1-14.76,36.73,55.27,55.27,0,0,1-16.13,11.37,52.8,52.8,0,0,1-18.81,4.75,42.64,42.64,0,0,1-18.87-3l11.62-28.92a13.48,13.48,0,0,0,6.84.81,20.45,20.45,0,0,0,7.06-2.29,25.2,25.2,0,0,0,6.18-4.68,20.23,20.23,0,0,0,5.74-14.28,25.32,25.32,0,0,0-1.22-7.66,21,21,0,0,0-3.43-6.5,13,13,0,0,0-5.41-4.11,10.2,10.2,0,0,0-3.43,2.93q-2,2.29-4.15,5.21t-4.16,6q-2,3.1-3.56,5.55-4.11,6.15-9.15,13.36a63.2,63.2,0,0,1-11.49,12.52,38,38,0,0,1-14.36,7.48q-7.93,2.14-17.63-1.75a42.46,42.46,0,0,1-15.68-10.91,51.58,51.58,0,0,1-10.2-16.41,56.28,56.28,0,0,1-3.7-19.33A50.05,50.05,0,0,1,1087.53,885.69Z" transform="translate(-246.24 -239.31)"/><path class="cls-1" d="M1032.1,979.56a50.66,50.66,0,0,1,15.65-12.91,56.44,56.44,0,0,1,18.71-6.13,51.67,51.67,0,0,1,19.29,1,42.58,42.58,0,0,1,17.14,8.43l-19.67,24.17a12.94,12.94,0,0,0-6.22-2.74,21.73,21.73,0,0,0-7.28.08,23.28,23.28,0,0,0-7.3,2.63,20.84,20.84,0,0,0-6.09,5.09,19.47,19.47,0,0,0-3.56,6.78,26.27,26.27,0,0,0-1.18,7.61,19.77,19.77,0,0,0,1.28,7.17,14.6,14.6,0,0,0,3.82,5.68,12.82,12.82,0,0,0,4.26-1.92q2.54-1.62,5.36-3.73t5.61-4.49q2.8-2.38,4.92-4.08,5.72-4.9,12.8-10.16a70,70,0,0,1,14.87-8.48,37.46,37.46,0,0,1,16-2.92q8.2.3,16.31,6.9a42.64,42.64,0,0,1,11.74,15.07,52.87,52.87,0,0,1,4.94,18.75,55.17,55.17,0,0,1-2.12,19.63,50.52,50.52,0,0,1-9.47,17.94,49.82,49.82,0,0,1-15.53,12.76,55,55,0,0,1-18.77,6.07,52.69,52.69,0,0,1-19.37-1,42.5,42.5,0,0,1-17.15-8.43l19.67-24.16a13.51,13.51,0,0,0,6.3,2.79,20.36,20.36,0,0,0,7.42-.08,25.58,25.58,0,0,0,7.29-2.64,20.24,20.24,0,0,0,9.72-11.94,25.06,25.06,0,0,0,1.1-7.67,21.05,21.05,0,0,0-1.35-7.23,12.93,12.93,0,0,0-4-5.53,10.4,10.4,0,0,0-4.14,1.78q-2.55,1.62-5.5,3.75t-5.76,4.52c-1.87,1.59-3.55,3-5,4.24q-5.74,4.67-12.71,10.05a63.32,63.32,0,0,1-14.68,8.56,37.92,37.92,0,0,1-15.93,2.87q-8.22-.3-16.32-6.89a42.68,42.68,0,0,1-11.74-15.08,51.54,51.54,0,0,1-4.87-18.69,56.13,56.13,0,0,1,2.2-19.56A50,50,0,0,1,1032.1,979.56Z" transform="translate(-246.24 -239.31)"/><path class="cls-1" d="M990.55,1023.22l87.9,108.77-24.24,19.58-87.9-108.76Z" transform="translate(-246.24 -239.31)"/><path class="cls-1" d="M957.55,1208.65a67.55,67.55,0,0,1-27,6.2,71.83,71.83,0,0,1-26.4-4.42,69.75,69.75,0,0,1-22.81-14,70.23,70.23,0,0,1-22.5-49.67,69.77,69.77,0,0,1,4.53-26.36,71.84,71.84,0,0,1,14.1-22.76,69.7,69.7,0,0,1,49.5-22.42,71.69,71.69,0,0,1,26.4,4.41,69.61,69.61,0,0,1,22.81,14,70.26,70.26,0,0,1,22.5,49.67,70,70,0,0,1-4.54,26.35A71.81,71.81,0,0,1,980,1192.42,67.66,67.66,0,0,1,957.55,1208.65Zm-44.77-98.82a38.63,38.63,0,0,0-20.33,21.66,39.74,39.74,0,0,0-2.41,14.69,37.72,37.72,0,0,0,3.43,15,37.14,37.14,0,0,0,8.93,12.35,40.24,40.24,0,0,0,12.6,7.79,38.83,38.83,0,0,0,50-22.66,40,40,0,0,0,2.46-14.61,37,37,0,0,0-3.4-14.86,37.66,37.66,0,0,0-9-12.44,39.8,39.8,0,0,0-12.64-7.87,38.58,38.58,0,0,0-29.69,1Z" transform="translate(-246.24 -239.31)"/><path class="cls-1" d="M755.28,1114.26l50,76.42-5.72-79.6,31.08-2.23,10,139.29-33.16,2.39-50.06-76.41,5.71,79.59L732,1255.94l-10-139.29Z" transform="translate(-246.24 -239.31)"/><path class="cls-1" d="M622.46,1204.85l6.7-22-50.34-15.34,9.08-29.81,50.35,15.35,15.84-52,29.8,9.08-40.71,133.58L563,1219.32l9.09-29.81Z" transform="translate(-246.24 -239.31)"/><path class="cls-1" d="M458.72,1160.54a67.78,67.78,0,0,1-19-20.23,71.76,71.76,0,0,1-9.49-25,70,70,0,0,1,.58-26.73,70.28,70.28,0,0,1,31.59-44.46,69.79,69.79,0,0,1,25.05-9.35,71.88,71.88,0,0,1,26.76.72,69.72,69.72,0,0,1,44.3,31.47,72,72,0,0,1,9.49,25,69.89,69.89,0,0,1-.59,26.74,70.13,70.13,0,0,1-31.58,44.45,70,70,0,0,1-25.05,9.36,71.94,71.94,0,0,1-26.77-.72A67.78,67.78,0,0,1,458.72,1160.54Zm62.84-88.45a38.36,38.36,0,0,0-14.07-6.28,37.94,37.94,0,0,0-14.88-.37,39.68,39.68,0,0,0-13.91,5.31,37.75,37.75,0,0,0-11.19,10.49,37.19,37.19,0,0,0-6.17,13.94A40,40,0,0,0,461,1110a38.81,38.81,0,0,0,44.76,31.8,40,40,0,0,0,13.86-5.24,37.1,37.1,0,0,0,11.13-10.41,38,38,0,0,0,6.23-14,39.73,39.73,0,0,0,.43-14.88,38.63,38.63,0,0,0-15.81-25.15Z" transform="translate(-246.24 -239.31)"/><path class="cls-1" d="M463.27,974.72l17.8,25.57-114.61,79.8-26.65-38.27a50.31,50.31,0,0,1-8.14-18.69A51.69,51.69,0,0,1,338.46,985a51.32,51.32,0,0,1,36.4-23.36,51.18,51.18,0,0,1,23.23,2.28l23.53-49.34L442.08,944l-18.52,38.91.32.47L432.7,996Zm-56.14,39.09-8.79-12.63a19.62,19.62,0,0,0-5.82-5.56,20.46,20.46,0,0,0-15-2.76,19.31,19.31,0,0,0-7.34,3.14,18.69,18.69,0,0,0-5.41,5.74,20.76,20.76,0,0,0-2.53,15,19.52,19.52,0,0,0,3.19,7.38l8.79,12.63Z" transform="translate(-246.24 -239.31)"/><path class="cls-1" d="M394.7,828a51.33,51.33,0,0,1,.33,21.07,54,54,0,0,1-21.52,33.64,50.88,50.88,0,0,1-19.25,8.5l-84.63,18.52L263,879.3l84.49-18.49a21.46,21.46,0,0,0,8-3.49,22.16,22.16,0,0,0,5.84-6.14,22.67,22.67,0,0,0,3.15-7.79,20.8,20.8,0,0,0-.14-8.63,21.45,21.45,0,0,0-3.5-8,22.25,22.25,0,0,0-14-9,21.52,21.52,0,0,0-8.71.16l-84.49,18.49L246.92,806l84.64-18.52a50.79,50.79,0,0,1,21-.32,53.93,53.93,0,0,1,33.61,21.58A51.32,51.32,0,0,1,394.7,828Z" transform="translate(-246.24 -239.31)"/><path class="cls-1" d="M386.57,767.3l-139.83,2.27-.5-31.15,139.82-2.27Z" transform="translate(-246.24 -239.31)"/><path class="cls-1" d="M260.23,625.58,390.52,694.1,385,726.3,254.69,657.78Z" transform="translate(-246.24 -239.31)"/><path class="cls-1" d="M421.29,594.17A51,51,0,0,1,408.66,611a54,54,0,0,1-37.61,13.44,51,51,0,0,1-20.42-5.06l-78.27-37.14,13.36-28.15,78.14,37.08a21.24,21.24,0,0,0,8.44,2.11,22.06,22.06,0,0,0,8.38-1.28,22.47,22.47,0,0,0,7.25-4.23,20.67,20.67,0,0,0,5.17-6.91,21.47,21.47,0,0,0,2.12-8.45,22.09,22.09,0,0,0-1.26-8.39,22.33,22.33,0,0,0-4.31-7.3,21.27,21.27,0,0,0-7-5.2l-78.13-37.08,13.36-28.16,78.27,37.15A50.88,50.88,0,0,1,413,536.09a54,54,0,0,1,13.37,37.63A51.17,51.17,0,0,1,421.29,594.17Z" transform="translate(-246.24 -239.31)"/><path class="cls-1" d="M448.51,438.1l78,19.21-24.63,25.86-43.26-10.5,12.72,42.56-24.63,25.86-23-77-78-19.21,24.77-26,42.86,10.65-12.59-42.43,24.77-26Z" transform="translate(-246.24 -239.31)"/></g></svg>