<svg id="Layer_1" data-name="Layer 1" xmlns="http://www.w3.org/2000/svg" viewBox="0 0 1451.82 1447.37"><defs><style>.cls-1{fill:#fff;}</style></defs><path class="cls-1" d="M373.91,366.28l-124.38-137,30.52-27.71,124.37,137Z" transform="translate(-28.44 -22.46)"/><path class="cls-1" d="M456.9,89.41,578.29,235.72l-37.83,18.76-13.67-16.23-48.64,24.12L483,283,445.2,301.72,402,116.67Zm11.72,131.68,31.3-15.53L451.21,147Z" transform="translate(-28.44 -22.46)"/><path class="cls-1" d="M739.8,22.46l25.57,183.22-40.83,5.7L709.67,104.83,695.16,215.48,655.33,221,610.52,116.38l15.19,108.79-40.83,5.7L559.31,47.64l62.52-8.47,42.06,97.68,14-105.5Z" transform="translate(-28.44 -22.46)"/><path class="cls-1" d="M964.4,59.84l-5,190-40.83-10.79.41-21.21L866.5,204l-9.89,18.71-40.83-10.79L905.11,44.16Zm-77.89,106.8,33.78,8.93,1.94-76.18Z" transform="translate(-28.44 -22.46)"/><path class="cls-1" d="M1061.85,312.9a66.81,66.81,0,0,1-18.34-19.59,74.37,74.37,0,0,1-9.66-24.19,68.15,68.15,0,0,1-.31-25.55,56.15,56.15,0,0,1,9.7-23.34l33.55,24a17.18,17.18,0,0,0-3.1,8.45,28.53,28.53,0,0,0,.71,9.61,30.41,30.41,0,0,0,4.09,9.41,27.38,27.38,0,0,0,7.22,7.63,26.05,26.05,0,0,0,9.25,4.13,35.26,35.26,0,0,0,10.15.92,26.16,26.16,0,0,0,9.35-2.28,19.41,19.41,0,0,0,7.19-5.53,16.8,16.8,0,0,0-2.9-5.46q-2.34-3.21-5.36-6.76t-6.4-7.05c-2.25-2.32-4.19-4.37-5.8-6.15q-7-7.12-14.48-16a92.6,92.6,0,0,1-12.44-18.92,49.76,49.76,0,0,1-5.19-20.84q-.28-10.86,7.75-22.11a56.38,56.38,0,0,1,18.93-16.76,69.78,69.78,0,0,1,24.35-8.09,73.25,73.25,0,0,1,26.08,1.17,66.74,66.74,0,0,1,24.48,11,66,66,0,0,1,18.15,19.44,72.85,72.85,0,0,1,9.57,24.29,69.77,69.77,0,0,1,.25,25.65,56.29,56.29,0,0,1-9.7,23.34l-33.55-23.95a17.85,17.85,0,0,0,3.17-8.55,27.36,27.36,0,0,0-.73-9.79,33.74,33.74,0,0,0-4.1-9.41,26.74,26.74,0,0,0-16.57-11.83,33.21,33.21,0,0,0-10.22-.81,27.45,27.45,0,0,0-9.43,2.38,17,17,0,0,0-7,5.67,13.62,13.62,0,0,0,2.7,5.32q2.34,3.23,5.41,7c2,2.49,4.19,4.89,6.45,7.23s4.26,4.43,6,6.31q6.63,7.2,14.32,15.93A83.37,83.37,0,0,1,1158,257.36a50,50,0,0,1,5.12,20.8q.3,10.86-7.74,22.11A56.25,56.25,0,0,1,1136.42,317a68.31,68.31,0,0,1-24.28,8,74.37,74.37,0,0,1-26-1.27A66.23,66.23,0,0,1,1061.85,312.9Z" transform="translate(-28.44 -22.46)"/><path class="cls-1" d="M1329.39,319.72a89.57,89.57,0,0,1,15.6,33.19,95.32,95.32,0,0,1,1.71,35.37,92.41,92.41,0,0,1-11.65,33.41,92.93,92.93,0,0,1-57.89,43.05,92.48,92.48,0,0,1-35.35,1.54,95,95,0,0,1-33.38-11.83,92.3,92.3,0,0,1-42.9-57.69,94.9,94.9,0,0,1-1.71-35.37A92.23,92.23,0,0,1,1175.47,328a92.91,92.91,0,0,1,57.89-43.05,92.47,92.47,0,0,1,35.35-1.54,95.15,95.15,0,0,1,33.38,11.83A89.4,89.4,0,0,1,1329.39,319.72Zm-115.18,85.64a51.14,51.14,0,0,0,33.72,20.19,52.59,52.59,0,0,0,19.67-1,50.07,50.07,0,0,0,18.36-8.64,49.05,49.05,0,0,0,13.45-15,53,53,0,0,0,6.53-18.47,51.37,51.37,0,0,0-43.35-58.3,53,53,0,0,0-19.57.93,49,49,0,0,0-18.26,8.56,49.92,49.92,0,0,0-13.56,15.1,52.34,52.34,0,0,0-6.62,18.54,51.1,51.1,0,0,0,9.63,38.11Z" transform="translate(-28.44 -22.46)"/><path class="cls-1" d="M1384.73,504l-28.59,10.39L1380,579.85l-38.74,14.09-23.8-65.43-67.56,24.57-14.1-38.73,173.62-63.17,37.9,104.17-38.74,14.1Z" transform="translate(-28.44 -22.46)"/><path class="cls-1" d="M1433.92,741.51l-4.66-43.74L1286,713l-4.36-41,143.22-15.24L1420.25,613l41-4.36,13.67,128.48Z" transform="translate(-28.44 -22.46)"/><path class="cls-1" d="M1415.55,1057,1248,967.92l15.62-59.31,96.78,2.61-85.45-45.64,15.62-59.31,189.73,5-10.75,40.84-139.39-3.69,122.4,65.24.79,0-10.88,41.32-.66-.43-138.6-3.75,123.13,65.44Z" transform="translate(-28.44 -22.46)"/><path class="cls-1" d="M1310.72,1205.73l-174.45-75.53,25.25-33.86,19.53,8.3,32.45-43.53L1199.83,1045l25.25-33.85,122.31,145.46Zm-70-112.12-20.89,28,70,30.23Z" transform="translate(-28.44 -22.46)"/><path class="cls-1" d="M1096.57,1161l32.82-25,111.79,147.1-49.13,37.33a66.49,66.49,0,0,1-24.24,11.8,68.32,68.32,0,0,1-50.78-6.88,67.9,67.9,0,0,1-32.89-46.83,67.92,67.92,0,0,1,1.73-30.83l-66.5-28.39,37.71-28.66,52.44,22.34.6-.45,16.26-12.36Zm54.75,72-16.21,12.32a26.12,26.12,0,0,0-7,8,27.09,27.09,0,0,0-2.82,20,25.38,25.38,0,0,0,4.55,9.52,24.63,24.63,0,0,0,7.88,6.83,27.42,27.42,0,0,0,19.92,2.54,26.12,26.12,0,0,0,9.58-4.63l16.22-12.32Z" transform="translate(-28.44 -22.46)"/><path class="cls-1" d="M1027.54,1371.68l-11.65-28.1-72.45,30-15.78-38.08,72.45-30-11.74-28.33-72.45,30-15.78-38.09,86.85-36,23.68-9.81,70.83,170.91L1043.42,1410l-.1-.23-72.45,30-15.78-38.08Z" transform="translate(-28.44 -22.46)"/><path class="cls-1" d="M807.24,1469.7a89.55,89.55,0,0,1-36.27-5.47,93.6,93.6,0,0,1-51.68-46.59,88.51,88.51,0,0,1-9.09-35.4,89.52,89.52,0,0,1,5.46-36.27,93.26,93.26,0,0,1,46.72-51.69,89.31,89.31,0,0,1,35.53-9.1l51.71-2.62L859,1467.08ZM800,1326.35a50.52,50.52,0,0,0-19.75,5,50.44,50.44,0,0,0-25.87,28.55,50.24,50.24,0,0,0-3,20.11,49.4,49.4,0,0,0,5,19.58,53.22,53.22,0,0,0,11.74,15.72,50.93,50.93,0,0,0,37,13.19l10.54-.53-5.17-102.17Z" transform="translate(-28.44 -22.46)"/><path class="cls-1" d="M625.76,1419.35l6.34-29.75-76.7-16.35,8.6-40.32,76.7,16.36,6.4-30-76.71-16.36,8.6-40.31,91.94,19.6,25.08,5.34-38.58,180.94-40.32-8.6.06-.24-76.7-16.36,8.59-40.31Z" transform="translate(-28.44 -22.46)"/><path class="cls-1" d="M352.59,1357l123.78-144,54.47,28.19-46.33,184.06L447,1405.9l34.06-135.22-91,105.75Z" transform="translate(-28.44 -22.46)"/><path class="cls-1" d="M303.38,1263.69l20.58-22.4-57.74-53.06,27.89-30.35,57.75,53.06,20.75-22.58-57.75-53.06,27.9-30.36L412,1168.55l18.87,17.35L305.67,1322.12l-30.35-27.89.17-.19L217.74,1241l27.9-30.36Z" transform="translate(-28.44 -22.46)"/><path class="cls-1" d="M243.45,1033.65l34-23.31,58.85,85.83L183.72,1200.79l-23.31-34L279,1085.48Z" transform="translate(-28.44 -22.46)"/><path class="cls-1" d="M64,974.48a89.63,89.63,0,0,1-4.24-36.43A95.08,95.08,0,0,1,69.36,904,92.42,92.42,0,0,1,91,876a92.94,92.94,0,0,1,68.56-22.43,92.49,92.49,0,0,1,34,9.77,95.09,95.09,0,0,1,27.9,21.82,92.31,92.31,0,0,1,22.35,68.33,95,95,0,0,1-9.62,34.08,92,92,0,0,1-21.66,28A92.89,92.89,0,0,1,144,1038a92.55,92.55,0,0,1-34-9.77,95.05,95.05,0,0,1-27.89-21.82A89.49,89.49,0,0,1,64,974.48Zm136.42-44.62A51,51,0,0,0,174.85,900a52.37,52.37,0,0,0-19-5.3,49.83,49.83,0,0,0-20.16,2.36,49.06,49.06,0,0,0-17.53,10,53,53,0,0,0-12,15.45,51.32,51.32,0,0,0,22.58,69,53,53,0,0,0,18.85,5.34,49,49,0,0,0,20-2.32,50,50,0,0,0,17.66-10,52.6,52.6,0,0,0,12.17-15.49,51.05,51.05,0,0,0,3-39.19Z" transform="translate(-28.44 -22.46)"/><path class="cls-1" d="M28.45,761.6a66.44,66.44,0,0,1,4.84-26.52A68.33,68.33,0,0,1,68.9,698.23,65.54,65.54,0,0,1,95,692.51a66.27,66.27,0,0,1,26.48,4.87,68.42,68.42,0,0,1,36.78,35.71,66.59,66.59,0,0,1,5.7,26.37l.33,20.42,49.26-.8.67,41.22-184.72,3Zm94.25-1.41a25.91,25.91,0,0,0-2.29-10.39A27,27,0,0,0,106,735.7a25.41,25.41,0,0,0-10.37-2A24.6,24.6,0,0,0,85.45,736a27.48,27.48,0,0,0-13.84,14.56,26.16,26.16,0,0,0-1.94,10.46L70,781.41l53-.86Z" transform="translate(-28.44 -22.46)"/><path class="cls-1" d="M84.4,607,114,614.14l18.52-76.21,40.06,9.74L154,623.87l29.8,7.24,18.52-76.2,40,9.73L220.19,656l-6.06,24.91L34.36,637.22l9.74-40.06.24.06L62.86,521l40.06,9.73Z" transform="translate(-28.44 -22.46)"/><path class="cls-1" d="M264.45,518.9l-19.64,36.25-162.44-88,29.39-54.25A66.67,66.67,0,0,1,129,392.15a68.4,68.4,0,0,1,49.1-14.65,68,68,0,0,1,49.26,29.13,68,68,0,0,1,11.12,28.82l72.29-1.52L288.2,475.58l-57,1.23-.36.67-9.73,17.95Zm-79.57-43.11,9.7-17.9a25.84,25.84,0,0,0,3.11-10.18A27.08,27.08,0,0,0,192,428.35a25.47,25.47,0,0,0-8.07-6.8,24.48,24.48,0,0,0-10-3,27.51,27.51,0,0,0-19.2,5.89,26.21,26.21,0,0,0-6.83,8.17l-9.7,17.9Z" transform="translate(-28.44 -22.46)"/></svg>