<svg id="Layer_1" data-name="Layer 1" xmlns="http://www.w3.org/2000/svg" viewBox="0 0 1501.06 1501.06"><defs><style>.cls-1{font-size:251.36px;fill:#fff;font-family:TheNextFont, The Next Font;}</style></defs><text class="cls-1" transform="matrix(0.74, -0.67, 0.67, 0.74, 367, 373.56)">I</text><text class="cls-1" transform="translate(409.63 335.09) rotate(-36.98)"> </text><text class="cls-1" transform="translate(436.73 306.72) rotate(-26.38)">A</text><text class="cls-1" transform="translate(575.45 232.79) rotate(-7.94)">M</text><text class="cls-1" transform="translate(767.54 213.41) rotate(4.19)"> </text><text class="cls-1" transform="translate(806.6 209.86) rotate(14.81)">A</text><text class="cls-1" transform="matrix(0.9, 0.43, -0.43, 0.9, 960.52, 255.71)"> </text><text class="cls-1" transform="translate(998.05 267.49) rotate(35.53)">S</text><text class="cls-1" transform="matrix(0.6, 0.8, -0.8, 0.6, 1120.47, 348.18)">O</text><text class="cls-1" transform="matrix(0.34, 0.94, -0.94, 0.34, 1232.85, 505.43)">F</text><text class="cls-1" transform="matrix(0.11, 0.99, -0.99, 0.11, 1276.49, 618.81)">T</text><text class="cls-1" transform="matrix(-0.25, 0.97, -0.97, -0.25, 1304.69, 755.02)">W</text><text class="cls-1" transform="translate(1231.62 1003.58) rotate(126.71)">A</text><text class="cls-1" transform="translate(1137.93 1130.51) rotate(142.77)">R</text><text class="cls-1" transform="matrix(-0.92, 0.38, -0.38, -0.92, 1020.49, 1219.99)">E</text><text class="cls-1" transform="translate(896.58 1267.84) rotate(166.72)"> </text><text class="cls-1" transform="translate(860.19 1282.59) rotate(177.1)">D</text><text class="cls-1" transform="translate(706.37 1290.2) rotate(-167.96)">E</text><text class="cls-1" transform="translate(578.92 1266.4) rotate(-152.63)">V</text><text class="cls-1" transform="translate(438.79 1193.23) rotate(-137.42)">E</text><text class="cls-1" transform="matrix(-0.57, -0.82, 0.82, -0.57, 342.52, 1104.99)">L</text><text class="cls-1" transform="translate(272 1015.05) rotate(-108.11)">O</text><text class="cls-1" transform="translate(214.87 830.88) rotate(-90.93)">P</text><text class="cls-1" transform="translate(212.29 691.2) rotate(-76.34)">E</text><text class="cls-1" transform="translate(240.55 564.51) rotate(-61.55)">R</text></svg>